<svg width="88" height="88" viewBox="0 0 88 88" fill="none" xmlns="http://www.w3.org/2000/svg">
<path d="M44 88C68.3005 88 88 68.3005 88 44C88 19.6995 68.3005 0 44 0C19.6995 0 0 19.6995 0 44C0 68.3005 19.6995 88 44 88Z" fill="#2C0145"/>
<path d="M15.9036 15.9036C9.88526 21.8912 5.95405 29.657 4.69155 38.0521C3.76054 44.2094 4.28886 50.4992 6.23394 56.415C8.17903 62.3307 11.4865 67.7068 15.8898 72.1101C20.2932 76.5135 25.6693 79.821 31.585 81.7661C37.5007 83.7111 43.7906 84.2394 49.9479 83.3084C56.1678 82.3746 62.0774 79.9785 67.1912 76.317C72.3051 72.6554 76.4773 67.8328 79.3652 62.2454C82.253 56.6581 83.7741 50.4653 83.8035 44.1758C83.8329 37.8863 82.3697 31.6795 79.5342 26.0654C76.6986 20.4513 72.5716 15.59 67.4922 11.8808C62.4128 8.17161 56.5258 5.72041 50.315 4.72853C44.1041 3.73666 37.7465 4.23242 31.7645 6.17508C25.7825 8.11775 20.3467 11.4519 15.9036 15.9036ZM66.053 18.2309L51.2096 33.0742C48.1981 29.5939 45.9256 25.5376 44.5301 21.1518C43.4091 17.5824 42.8721 13.8554 42.9397 10.1147C51.3796 9.84011 59.6174 12.7291 66.0371 18.2149L66.053 18.2309ZM47.4405 36.8063L44 40.2521L21.9576 18.2096C26.4365 14.3746 31.8437 11.7825 37.6385 10.6925C37.6326 20.2975 41.1159 29.5775 47.4405 36.8063ZM18.2096 21.9629L40.252 44L36.8062 47.4405C29.5775 41.116 20.2974 37.6326 10.6925 37.6386C11.7825 31.8437 14.3746 26.4365 18.2096 21.9576V21.9629ZM10.1147 42.9398C13.8554 42.8721 17.5824 43.4091 21.1518 44.5301C25.5306 45.9228 29.5812 48.1898 33.0583 51.1937L18.2149 66.0371C12.7291 59.6175 9.84009 51.3796 10.1147 42.9398ZM21.9629 69.801L36.8062 54.9576C39.8084 58.43 42.0752 62.475 43.4699 66.8482C44.5909 70.4176 45.1279 74.1446 45.0602 77.8853C36.6204 78.1599 28.3825 75.2709 21.9629 69.7851V69.801ZM40.5595 51.1937L44 47.748L66.0424 69.7904C61.5709 73.6212 56.1734 76.2131 50.3879 77.3075C50.3865 67.6991 46.8936 58.4187 40.5595 51.1937ZM69.7903 66.0371L47.7479 44L51.1937 40.5595C58.4186 46.8937 67.6991 50.3866 77.3074 50.388C76.2131 56.1734 73.6212 61.571 69.7903 66.0424V66.0371ZM77.8853 45.0602C74.1446 45.1279 70.4176 44.5909 66.8482 43.4699C62.4702 42.0804 58.4197 39.8171 54.9417 36.8169L69.785 21.9735C75.2684 28.3904 78.1572 36.624 77.8853 45.0602Z" fill="#EE2FB0"/>
</svg>
